<svg width="11" height="3" viewBox="0 0 11 3" fill="none" xmlns="http://www.w3.org/2000/svg">
<path d="M1.128 0.58C0.504 0.58 0.0880001 0.996 0.0880001 1.62C0.0880001 2.244 0.504 2.66 1.128 2.66C1.752 2.66 2.168 2.244 2.168 1.62C2.168 0.996 1.752 0.58 1.128 0.58ZM5.378 0.58C4.754 0.58 4.338 0.996 4.338 1.62C4.338 2.244 4.754 2.66 5.378 2.66C6.002 2.66 6.418 2.244 6.418 1.62C6.418 0.996 6.002 0.58 5.378 0.58ZM9.628 0.58C9.004 0.58 8.588 0.996 8.588 1.62C8.588 2.244 9.004 2.66 9.628 2.66C10.252 2.66 10.668 2.244 10.668 1.62C10.668 0.996 10.252 0.58 9.628 0.58Z" fill="#808080"/>
</svg>
